<svg width="30" height="30" viewBox="0 0 30 30" fill="none" xmlns="http://www.w3.org/2000/svg">
<path d="M22.5 15V21C22.5 21.3978 22.342 21.7794 22.0607 22.0607C21.7794 22.342 21.3978 22.5 21 22.5H15M22.5 1.5H25.5C26.2956 1.5 27.0587 1.81607 27.6213 2.37868C28.1839 2.94129 28.5 3.70435 28.5 4.5V7.5M22.5 9V7.5M28.5 22.5V25.5C28.5 26.2956 28.1839 27.0587 27.6213 27.6213C27.0587 28.1839 26.2956 28.5 25.5 28.5H22.5M1.5 7.5V4.5C1.5 3.70435 1.81607 2.94129 2.37868 2.37868C2.94129 1.81607 3.70435 1.5 4.5 1.5H7.5M7.5 22.5H7.515M7.5 28.5H4.5C3.70435 28.5 2.94129 28.1839 2.37868 27.6213C1.81607 27.0587 1.5 26.2956 1.5 25.5V22.5" stroke="white" stroke-width="2" stroke-linecap="round" stroke-linejoin="round"/>
<path d="M13.5 7.5H9C8.17157 7.5 7.5 8.17157 7.5 9V13.5C7.5 14.3284 8.17157 15 9 15H13.5C14.3284 15 15 14.3284 15 13.5V9C15 8.17157 14.3284 7.5 13.5 7.5Z" stroke="white" stroke-width="2" stroke-linecap="round" stroke-linejoin="round"/>
</svg>
