<svg width="36" height="36" viewBox="0 0 36 36" fill="none" xmlns="http://www.w3.org/2000/svg">
<path d="M12 4.50003V26.25M22.5 9.75003V30.75M7.8795 6.29403L6.039 7.36203C4.5555 8.22153 3.8145 8.65203 3.408 9.36753C3 10.083 3 10.953 3 12.696V24.942C3 27.231 3 28.377 3.513 29.013C3.855 29.436 4.3335 29.721 4.863 29.8155C5.658 29.958 6.633 29.3925 8.58 28.263C9.903 27.4965 11.175 26.6985 12.7575 26.916C13.4775 27.0135 14.163 27.3555 15.537 28.038L21.2565 30.882C22.494 31.497 22.506 31.5 23.8815 31.5H27C29.829 31.5 31.242 31.5 32.121 30.6015C33 29.7045 33 28.2585 33 25.3665V15.2565C33 12.366 33 10.9215 32.121 10.0215C31.242 9.12453 29.829 9.12453 27 9.12453H23.8815C22.506 9.12453 22.494 9.12153 21.2565 8.50653L16.26 6.02253C14.1735 4.98453 13.1295 4.46553 12.018 4.50003C10.9065 4.53453 9.9 5.12253 7.8795 6.29403Z" stroke="white" stroke-width="1.5" stroke-linecap="round" stroke-linejoin="round"/>
</svg>
