<svg width="20" height="21" viewBox="0 0 20 21" fill="none" xmlns="http://www.w3.org/2000/svg">
<path d="M9.99993 13.8359L6.93593 16.1753C6.78411 16.2995 6.61848 16.3583 6.43906 16.3517C6.25964 16.3451 6.10092 16.2932 5.9629 16.196C5.82488 16.0988 5.71805 15.9677 5.64242 15.8026C5.56679 15.6376 5.5632 15.4582 5.63165 15.2644L6.81171 11.4344L3.80981 9.302C3.64419 9.19158 3.54068 9.04666 3.49927 8.86724C3.45787 8.68782 3.46477 8.52219 3.51998 8.37037C3.57518 8.21855 3.6718 8.08385 3.80981 7.96626C3.94783 7.84866 4.11345 7.79014 4.30668 7.7907H8.01247L9.21322 3.81578C9.28223 3.62255 9.38933 3.47404 9.53453 3.37025C9.67972 3.26646 9.83486 3.21485 9.99993 3.2154C10.165 3.21595 10.3204 3.26784 10.4662 3.37108C10.6119 3.47432 10.7187 3.62255 10.7866 3.81578L11.9874 7.7907H15.6932C15.8864 7.7907 16.052 7.84949 16.19 7.96708C16.3281 8.08468 16.4247 8.21911 16.4799 8.37037C16.5351 8.52164 16.542 8.68726 16.5006 8.86724C16.4592 9.04721 16.3557 9.19213 16.19 9.302L13.1881 11.4344L14.3682 15.2644C14.4372 15.4576 14.4339 15.637 14.3583 15.8026C14.2826 15.9683 14.1755 16.0994 14.037 16.196C13.8984 16.2926 13.7397 16.3445 13.5608 16.3517C13.3819 16.3589 13.2163 16.3001 13.0639 16.1753L9.99993 13.8359Z" fill="#FFCD29"/>
</svg>
