<svg width="26" height="26" viewBox="0 0 26 26" fill="none" xmlns="http://www.w3.org/2000/svg">
<path d="M10.7854 17.128C8.91057 17.128 7.32405 16.4785 6.0258 15.1796C4.72755 13.8806 4.07808 12.2941 4.07739 10.42C4.07671 8.5459 4.72617 6.95938 6.0258 5.66044C7.32543 4.36151 8.91195 3.71204 10.7854 3.71204C12.6588 3.71204 14.2456 4.36151 15.546 5.66044C16.8463 6.95938 17.4954 8.5459 17.4933 10.42C17.4933 11.1768 17.3729 11.8906 17.1321 12.5614C16.8913 13.2322 16.5645 13.8256 16.1517 14.3416L21.9309 20.1208C22.1201 20.31 22.2147 20.5508 22.2147 20.8432C22.2147 21.1356 22.1201 21.3764 21.9309 21.5656C21.7417 21.7548 21.5009 21.8494 21.2085 21.8494C20.9161 21.8494 20.6753 21.7548 20.4861 21.5656L14.707 15.7864C14.191 16.1992 13.5976 16.526 12.9268 16.7668C12.256 17.0076 11.5422 17.128 10.7854 17.128ZM10.7854 15.064C12.0754 15.064 13.172 14.6127 14.0754 13.71C14.9787 12.8074 15.43 11.7107 15.4293 10.42C15.4287 9.12933 14.9773 8.033 14.0754 7.13104C13.1734 6.22907 12.0767 5.7774 10.7854 5.77603C9.49399 5.77465 8.39767 6.22632 7.4964 7.13104C6.59512 8.03575 6.14345 9.13208 6.14138 10.42C6.13932 11.7079 6.59099 12.8046 7.4964 13.71C8.4018 14.6154 9.49812 15.0667 10.7854 15.064Z" fill="#9C9C9C"/>
</svg>
