<svg width="14" height="14" viewBox="0 0 14 14" fill="none" xmlns="http://www.w3.org/2000/svg">
<path d="M3.73337 2.77666C4.60272 1.9247 5.77317 1.45024 6.99037 1.45639C8.20757 1.46254 9.37317 1.94879 10.2339 2.8095C11.0946 3.6702 11.5808 4.83579 11.587 6.053C11.5931 7.2702 11.1187 8.44065 10.2667 9.31L7.82487 11.7518C7.60609 11.9705 7.3094 12.0934 7.00004 12.0934C6.69068 12.0934 6.39399 11.9705 6.1752 11.7518L3.73337 9.31C2.86706 8.44359 2.38037 7.26855 2.38037 6.04333C2.38037 4.81811 2.86706 3.64307 3.73337 2.77666Z" stroke="white" stroke-width="1.5" stroke-linejoin="round"/>
<path d="M7 7.79333C7.9665 7.79333 8.75 7.00983 8.75 6.04333C8.75 5.07684 7.9665 4.29333 7 4.29333C6.0335 4.29333 5.25 5.07684 5.25 6.04333C5.25 7.00983 6.0335 7.79333 7 7.79333Z" stroke="white" stroke-width="1.5" stroke-linecap="round" stroke-linejoin="round"/>
</svg>
