<svg width="28" height="24" viewBox="0 0 28 24" fill="none" xmlns="http://www.w3.org/2000/svg">
<path d="M13.97 23.641C13.679 23.641 13.3905 23.588 13.1045 23.482C12.8185 23.377 12.567 23.2155 12.35 22.9975L10.628 21.445C7.958 19.02 5.603 16.6615 3.563 14.3695C1.521 12.0785 0.5 9.69697 0.5 7.22497C0.5 5.31698 1.148 3.71498 2.444 2.41898C3.74 1.12298 5.342 0.474976 7.25 0.474976C8.344 0.474976 9.4835 0.751476 10.6685 1.30448C11.8535 1.85748 12.964 2.90048 14 4.43348C15.037 2.90048 16.1475 1.85748 17.3315 1.30448C18.5155 0.751476 19.655 0.474976 20.75 0.474976C22.658 0.474976 24.26 1.12298 25.556 2.41898C26.852 3.71498 27.5 5.31698 27.5 7.22497C27.5 9.75397 26.4375 12.185 24.3125 14.518C22.1875 16.851 19.8615 19.162 17.3345 21.451L15.6215 22.9975C15.4035 23.2155 15.147 23.377 14.852 23.482C14.557 23.587 14.2635 23.64 13.9715 23.641M13.2665 5.99048C12.3685 4.54248 11.435 3.51098 10.466 2.89598C9.497 2.28198 8.425 1.97498 7.25 1.97498C5.75 1.97498 4.5 2.47498 3.5 3.47498C2.5 4.47498 2 5.72497 2 7.22497C2 8.33297 2.3135 9.46898 2.9405 10.633C3.5675 11.798 4.4095 12.991 5.4665 14.212C6.5225 15.432 7.737 16.681 9.11 17.959C10.481 19.236 11.909 20.5505 13.394 21.9025C13.567 22.0565 13.769 22.1335 14 22.1335C14.231 22.1335 14.433 22.0565 14.606 21.9025C16.091 20.5505 17.5195 19.2355 18.8915 17.9575C20.2635 16.6815 21.478 15.433 22.535 14.212C23.591 12.99 24.4325 11.797 25.0595 10.633C25.6865 9.46898 26 8.33297 26 7.22497C26 5.72497 25.5 4.47498 24.5 3.47498C23.5 2.47498 22.25 1.97498 20.75 1.97498C19.575 1.97498 18.503 2.28248 17.534 2.89748C16.564 3.51148 15.6305 4.54248 14.7335 5.99048C14.6535 6.12548 14.5465 6.22648 14.4125 6.29348C14.2785 6.36048 14.141 6.39398 14 6.39398C13.859 6.39398 13.7215 6.36048 13.5875 6.29348C13.4535 6.22648 13.347 6.12548 13.268 5.99048" fill="white"/>
</svg>
